<svg width="100" height="100" viewBox="0 0 100 100" fill="none" xmlns="http://www.w3.org/2000/svg">
<path fill-rule="evenodd" clip-rule="evenodd" d="M46.3332 64C46.3332 73.2 53.8165 80.6666 62.9998 80.6666L63.4661 80.6602C72.4508 80.413 79.6665 73.044 79.6665 64C79.6665 54.8166 72.1998 47.3333 62.9998 47.3333C53.8165 47.3333 46.3332 54.8166 46.3332 64ZM66.2998 57.3333C66.7832 57.8333 66.7832 58.6166 66.2832 59.1L61.3665 64L66.2832 68.9C66.7832 69.3833 66.7832 70.1833 66.2998 70.6666C65.7998 71.1666 65.0165 71.1666 64.5332 70.6666L58.7165 64.8833C58.4832 64.65 58.3498 64.3333 58.3498 64C58.3498 63.6666 58.4832 63.35 58.7165 63.1166L64.5332 57.3333C64.7665 57.0833 65.0832 56.9666 65.3998 56.9666C65.7332 56.9666 66.0498 57.0833 66.2998 57.3333Z" fill="#141024"/>
</svg>
