<svg width="100" height="100" viewBox="0 0 100 100" fill="none" xmlns="http://www.w3.org/2000/svg">
<path fill-rule="evenodd" clip-rule="evenodd" d="M53.6668 64C53.6668 73.2 46.1835 80.6666 37.0002 80.6666L36.5339 80.6602C27.5492 80.413 20.3335 73.044 20.3335 64C20.3335 54.8166 27.8002 47.3333 37.0002 47.3333C46.1835 47.3333 53.6668 54.8166 53.6668 64ZM33.7002 57.3333C33.2168 57.8333 33.2168 58.6166 33.7168 59.1L38.6335 64L33.7168 68.9C33.2168 69.3833 33.2168 70.1833 33.7002 70.6666C34.2002 71.1666 34.9835 71.1666 35.4668 70.6666L41.2835 64.8833C41.5168 64.65 41.6502 64.3333 41.6502 64C41.6502 63.6666 41.5168 63.35 41.2835 63.1166L35.4668 57.3333C35.2335 57.0833 34.9168 56.9666 34.6002 56.9666C34.2668 56.9666 33.9502 57.0833 33.7002 57.3333Z" fill="#141024"/>
</svg>
